<?xml version="1.0" encoding="utf-8"?>
<!-- Generator: Adobe Illustrator 25.1.0, SVG Export Plug-In . SVG Version: 6.00 Build 0)  -->
<svg version="1.1" id="Layer_1" xmlns="http://www.w3.org/2000/svg" xmlns:xlink="http://www.w3.org/1999/xlink" x="0px" y="0px"
	 viewBox="0 0 800 800" style="enable-background:new 0 0 800 800;" xml:space="preserve">
<g id="XMLID_2_">
	<path id="XMLID_4_" d="M180.3,447c-14.2,14.2-14.2,37.2,0,51.4c14.2,14.2,37.2,14.2,51.4,0L400,330.2l168.2,168.2
		c14.2,14.2,37.2,14.2,51.4,0c7.1-7.1,10.6-16.4,10.6-25.7s-3.5-18.6-10.7-25.7L425.7,253.1c-6.8-6.8-16.1-10.7-25.7-10.7
		c-9.6,0-18.9,3.8-25.7,10.7L180.3,447z"/>
	<path id="XMLID_5_" d="M0,400c0,220.6,179.4,400,400,400s400-179.4,400-400S620.6,0,400,0C179.4,0,0,179.4,0,400z M727.3,400
		c0,180.5-146.8,327.3-327.3,327.3S72.7,580.5,72.7,400S219.5,72.7,400,72.7S727.3,219.5,727.3,400z"/>
</g>
</svg>
